<?xml version="1.0" encoding="UTF-8" standalone="no"?>
<!-- Created with Inkscape (http://www.inkscape.org/) -->

<svg
   xmlns:dc="http://purl.org/dc/elements/1.1/"
   xmlns:cc="http://creativecommons.org/ns#"
   xmlns:rdf="http://www.w3.org/1999/02/22-rdf-syntax-ns#"
   xmlns:svg="http://www.w3.org/2000/svg"
   xmlns="http://www.w3.org/2000/svg"
   xmlns:sodipodi="http://sodipodi.sourceforge.net/DTD/sodipodi-0.dtd"
   xmlns:inkscape="http://www.inkscape.org/namespaces/inkscape"
   width="24.908535mm"
   height="21.747786mm"
   viewBox="0 0 24.908535 21.747786"
   version="1.1"
   id="svg8"
   inkscape:version="0.92.1 r15371"
   sodipodi:docname="d1.svg">
  <defs
     id="defs2" />
  <sodipodi:namedview
     id="base"
     pagecolor="#ffffff"
     bordercolor="#666666"
     borderopacity="1.0"
     inkscape:pageopacity="0.0"
     inkscape:pageshadow="2"
     inkscape:zoom="2.8"
     inkscape:cx="46.23723"
     inkscape:cy="31.565713"
     inkscape:document-units="mm"
     inkscape:current-layer="layer1"
     showgrid="false"
     inkscape:measure-start="0,0"
     inkscape:measure-end="0,0"
     inkscape:snap-global="false"
     inkscape:window-width="1920"
     inkscape:window-height="1027"
     inkscape:window-x="-8"
     inkscape:window-y="-8"
     inkscape:window-maximized="1"
     fit-margin-top="0"
     fit-margin-left="0"
     fit-margin-right="0"
     fit-margin-bottom="0" />
  <metadata
     id="metadata5">
    <rdf:RDF>
      <cc:Work
         rdf:about="">
        <dc:format>image/svg+xml</dc:format>
        <dc:type
           rdf:resource="http://purl.org/dc/dcmitype/StillImage" />
        <dc:title></dc:title>
      </cc:Work>
    </rdf:RDF>
  </metadata>
  <g
     inkscape:label="Layer 1"
     inkscape:groupmode="layer"
     id="layer1"
     transform="translate(-63.339807,-80.369441)">
    <text
       xml:space="preserve"
       style="font-style:normal;font-variant:normal;font-weight:normal;font-stretch:normal;font-size:50.79999924px;line-height:125%;font-family:Pacifico;-inkscape-font-specification:Pacifico;letter-spacing:0px;word-spacing:0px;fill:#00e5ff;fill-opacity:1;stroke:none;stroke-width:0.26458332px;stroke-linecap:butt;stroke-linejoin:miter;stroke-opacity:1"
       x="62.951752"
       y="87.001663"
       id="text4487"><tspan
         sodipodi:role="line"
         id="tspan4485"
         x="62.951752"
         y="87.001663"
         style="font-size:7.05555534px;fill:#00e5ff;fill-opacity:1;stroke-width:0.26458332px">branding</tspan></text>
    <text
       xml:space="preserve"
       style="font-style:normal;font-variant:normal;font-weight:normal;font-stretch:normal;font-size:7.05555534px;line-height:125%;font-family:'Cabin Sketch';-inkscape-font-specification:'Cabin Sketch';letter-spacing:0px;word-spacing:0px;fill:#00e5ff;fill-opacity:1;stroke:none;stroke-width:0.26458332px;stroke-linecap:butt;stroke-linejoin:miter;stroke-opacity:1"
       x="65.84304"
       y="100.80489"
       id="text4491"><tspan
         sodipodi:role="line"
         id="tspan4489"
         x="65.84304"
         y="100.80489"
         style="font-style:normal;font-variant:normal;font-weight:bold;font-stretch:normal;font-family:'Cabin Sketch';-inkscape-font-specification:'Cabin Sketch Bold';fill:#00e5ff;fill-opacity:1;stroke-width:0.26458332px">design</tspan></text>
    <rect
       style="color:#000000;clip-rule:nonzero;display:inline;overflow:visible;visibility:visible;opacity:1;isolation:auto;mix-blend-mode:normal;color-interpolation:sRGB;color-interpolation-filters:linearRGB;solid-color:#000000;solid-opacity:1;fill:#000000;fill-opacity:0;fill-rule:nonzero;stroke:none;stroke-width:0.67800003;stroke-linecap:butt;stroke-linejoin:miter;stroke-miterlimit:4;stroke-dasharray:none;stroke-dashoffset:0;stroke-opacity:1;color-rendering:auto;image-rendering:auto;shape-rendering:auto;text-rendering:auto;enable-background:accumulate"
       id="rect4493"
       width="45.735119"
       height="16.536459"
       x="55.656994"
       y="84.104912" />
    <rect
       style="color:#000000;clip-rule:nonzero;display:inline;overflow:visible;visibility:visible;opacity:1;isolation:auto;mix-blend-mode:normal;color-interpolation:sRGB;color-interpolation-filters:linearRGB;solid-color:#000000;solid-opacity:1;fill:#000000;fill-opacity:0;fill-rule:nonzero;stroke:none;stroke-width:0.67800003;stroke-linecap:butt;stroke-linejoin:miter;stroke-miterlimit:4;stroke-dasharray:none;stroke-dashoffset:0;stroke-opacity:1;color-rendering:auto;image-rendering:auto;shape-rendering:auto;text-rendering:auto;enable-background:accumulate"
       id="rect4495"
       width="67.279762"
       height="34.58482"
       x="36.002232"
       y="69.174843" />
    <rect
       style="color:#000000;clip-rule:nonzero;display:inline;overflow:visible;visibility:visible;opacity:1;isolation:auto;mix-blend-mode:normal;color-interpolation:sRGB;color-interpolation-filters:linearRGB;solid-color:#000000;solid-opacity:1;fill:#000000;fill-opacity:0;fill-rule:nonzero;stroke:none;stroke-width:0.67800003;stroke-linecap:butt;stroke-linejoin:miter;stroke-miterlimit:4;stroke-dasharray:none;stroke-dashoffset:0;stroke-opacity:1;color-rendering:auto;image-rendering:auto;shape-rendering:auto;text-rendering:auto;enable-background:accumulate"
       id="rect4497"
       width="63.783482"
       height="37.514137"
       x="56.318451"
       y="72.104164" />
    <rect
       style="color:#000000;clip-rule:nonzero;display:inline;overflow:visible;visibility:visible;opacity:1;isolation:auto;mix-blend-mode:normal;color-interpolation:sRGB;color-interpolation-filters:linearRGB;solid-color:#000000;solid-opacity:1;fill:#000000;fill-opacity:0;fill-rule:nonzero;stroke:none;stroke-width:0.67800003;stroke-linecap:butt;stroke-linejoin:miter;stroke-miterlimit:4;stroke-dasharray:none;stroke-dashoffset:0;stroke-opacity:1;color-rendering:auto;image-rendering:auto;shape-rendering:auto;text-rendering:auto;enable-background:accumulate"
       id="rect4499"
       width="39.781994"
       height="15.969496"
       x="56.318447"
       y="72.104164" />
    <rect
       style="color:#000000;clip-rule:nonzero;display:inline;overflow:visible;visibility:visible;opacity:1;isolation:auto;mix-blend-mode:normal;color-interpolation:sRGB;color-interpolation-filters:linearRGB;solid-color:#000000;solid-opacity:1;fill:#000000;fill-opacity:0;fill-rule:nonzero;stroke:none;stroke-width:0.67800003;stroke-linecap:butt;stroke-linejoin:miter;stroke-miterlimit:4;stroke-dasharray:none;stroke-dashoffset:0;stroke-opacity:1;color-rendering:auto;image-rendering:auto;shape-rendering:auto;text-rendering:auto;enable-background:accumulate"
       id="rect4501"
       width="26.741814"
       height="13.134672"
       x="74.744789"
       y="63.032734" />
    <rect
       style="color:#000000;clip-rule:nonzero;display:inline;overflow:visible;visibility:visible;opacity:1;isolation:auto;mix-blend-mode:normal;color-interpolation:sRGB;color-interpolation-filters:linearRGB;solid-color:#000000;solid-opacity:1;fill:#000000;fill-opacity:0;fill-rule:nonzero;stroke:none;stroke-width:0.67800003;stroke-linecap:butt;stroke-linejoin:miter;stroke-miterlimit:4;stroke-dasharray:none;stroke-dashoffset:0;stroke-opacity:1;color-rendering:auto;image-rendering:auto;shape-rendering:auto;text-rendering:auto;enable-background:accumulate"
       id="rect4503"
       width="10.866816"
       height="24.001488"
       x="128.88988"
       y="79.191216" />
    <path
       style="font-style:normal;font-variant:normal;font-weight:normal;font-stretch:normal;font-size:7.05555534px;line-height:125%;font-family:'Cabin Sketch';-inkscape-font-specification:'Cabin Sketch';letter-spacing:0px;word-spacing:0px;fill:#00e5ff;fill-opacity:1;stroke:none;stroke-width:0.26458332px;stroke-linecap:butt;stroke-linejoin:miter;stroke-opacity:1"
       d="m 75.578583,90.069108 c -0.221065,0 -0.418412,0.05105 -0.59273,0.150895 -0.0076,0.0031 -0.01522,0.0058 -0.02274,0.0088 v 0.0041 c -0.17055,0.105145 -0.304834,0.252089 -0.402042,0.442348 -0.09878,0.193329 -0.148312,0.41664 -0.148312,0.669727 0,0.284718 0.09532,0.613386 0.286287,0.985986 -0.339135,0.217934 -0.584412,0.439074 -0.735873,0.664044 -0.148166,0.22145 -0.222207,0.46067 -0.222207,0.71727 0,0.18981 0.05277,0.3621 0.158128,0.51676 0.108654,0.15466 0.26185,0.27593 0.459404,0.3638 0.197556,0.0879 0.428027,0.13178 0.69143,0.13178 0.03351,0 0.06684,-0.007 0.100254,-0.0114 0.226483,0.0663 0.366897,0.11006 0.375687,0.11885 h 0.09199 c 0.127,-0.0188 0.228081,-0.0304 0.303339,-0.0351 0.188148,-0.0141 0.340778,-0.0379 0.45837,-0.0708 0.122298,-0.0282 0.228438,-0.0868 0.317809,-0.17621 0.0047,0.005 0.01886,0.0259 0.04238,0.0636 0.02822,0.0376 0.05147,0.0609 0.07028,0.0703 0.159925,0.0235 0.305996,0.0357 0.437698,0.0357 0.343371,0 0.543001,-0.0284 0.599448,-0.0847 -0.0047,-0.009 -0.01178,-0.019 -0.02119,-0.0284 l -0.01395,-0.0279 -0.550352,-0.71986 c -0.02822,-0.0658 -0.04238,-0.12953 -0.04238,-0.19068 0,-0.0941 0.03993,-0.18809 0.119891,-0.28216 0.05644,-0.0894 0.0989,-0.19499 0.127122,-0.31729 0.03293,-0.127 0.04909,-0.25183 0.04909,-0.37414 l -0.0067,-0.11988 0.02791,-0.0284 c -0.0047,-0.0188 -0.01885,-0.0279 -0.04238,-0.0279 h -0.02791 c -0.03763,0 -0.06341,0.0162 -0.07751,0.0491 -0.0094,0.0329 -0.02609,0.0496 -0.04961,0.0496 v -0.0563 c -0.04704,0 -0.115268,0.0162 -0.204639,0.0491 -0.08467,0.0329 -0.145823,0.0658 -0.183452,0.0987 0,-0.0423 0.03993,-0.0823 0.119888,-0.11989 0.07997,-0.0376 0.169421,-0.0679 0.268203,-0.0915 0.103478,-0.0235 0.16918,-0.0351 0.197403,-0.0351 l -0.02791,-0.0568 c -0.150519,0 -0.30821,-0.0116 -0.472839,-0.0351 -0.17874,-0.0188 -0.315206,-0.02842 -0.409276,-0.02842 -0.05645,0 -0.08676,0.01206 -0.09147,0.03565 l 0.141078,0.14159 c -0.02352,0.0329 -0.03767,0.0769 -0.04238,0.13332 -0.0047,0.0517 -0.0072,0.10433 -0.0072,0.15607 0,0.0705 -0.0025,0.1221 -0.0072,0.15503 -0.03763,-0.005 -0.07755,-0.0331 -0.119888,-0.0847 -0.03293,-0.0376 -0.06071,-0.0634 -0.08423,-0.0775 -0.02352,-0.0188 -0.06143,-0.0284 -0.113173,-0.0284 0,-0.0376 -0.02324,-0.075 -0.07028,-0.11266 -0.04233,-0.0376 -0.09187,-0.0685 -0.148312,-0.092 -0.05644,-0.0282 -0.09182,-0.0444 -0.105937,-0.0491 -0.0047,-0.0141 -0.03048,-0.045 -0.07751,-0.092 -0.04233,-0.047 -0.06356,-0.0819 -0.06356,-0.105417 0.0047,-0.0235 0.02795,-0.05185 0.07028,-0.08475 0.04233,-0.0329 0.08985,-0.06378 0.141595,-0.09198 0.07996,-0.0517 0.138586,-0.0917 0.176215,-0.119891 0.03763,-0.0282 0.05633,-0.05847 0.05633,-0.09147 h 0.02842 c 0.103481,-0.0941 0.171712,-0.221448 0.204639,-0.381373 0.03293,-0.159928 0.04909,-0.336317 0.04909,-0.529167 0,-0.136408 -0.02577,-0.256185 -0.07752,-0.359667 -0.04704,-0.108188 -0.122343,-0.211796 -0.225824,-0.310575 -0.211667,-0.188148 -0.39007,-0.282155 -0.535885,-0.282155 -0.02708,0 -0.05297,0.0021 -0.07958,0.0031 -0.02174,-0.0016 -0.04267,-0.0041 -0.06563,-0.0041 z m 0.21549,0.163296 c 0.02822,0 0.06107,0.0187 0.0987,0.05633 0.03763,0.03293 0.06593,0.05214 0.08475,0.05685 l -0.507978,0.225308 c 0,-0.02822 0.05155,-0.07522 0.15503,-0.141075 0.07526,-0.05644 0.120247,-0.09384 0.134358,-0.112655 0,-0.01882 0.002,-0.03751 0.0067,-0.05633 0.0094,-0.01882 0.01902,-0.02842 0.02842,-0.02842 z m 0.260966,0.225827 h 0.05633 c 0.04704,0 0.106177,0.06115 0.176733,0.183452 0.07526,0.117594 0.112655,0.223221 0.112655,0.317293 0,0.01411 -0.01162,0.02625 -0.03514,0.03566 -0.01881,0.0094 -0.04964,0.02103 -0.09198,0.03514 -0.03763,0.0094 -0.06339,0.01648 -0.07752,0.02119 -0.07526,0.01881 -0.129336,0.03498 -0.162263,0.04909 0.0047,-0.02352 0.02593,-0.04676 0.06356,-0.07028 0.03763,-0.02822 0.06139,-0.0449 0.07079,-0.04961 0.103481,-0.06585 0.162107,-0.11993 0.176217,-0.162263 0,-0.0094 -0.0045,-0.0185 -0.01395,-0.0279 -0.0047,-0.01411 -0.01178,-0.02119 -0.02119,-0.02119 l -0.331764,0.07751 v -0.02842 l 0.225828,-0.225825 c -0.02352,-0.01411 -0.05436,-0.02119 -0.09199,-0.02119 -0.04704,0 -0.09605,0.0071 -0.147794,0.02119 -0.04704,0.0094 -0.0708,0.03064 -0.0708,0.06356 l -0.02791,-0.03514 c -0.01411,0.01411 -0.03534,0.02827 -0.06356,0.04237 -0.02352,0.0094 -0.04272,0.01395 -0.05684,0.01395 z m -0.148312,0.275434 c 0,0.0047 -0.01363,0.01834 -0.04186,0.04186 -0.02822,0.02352 -0.04744,0.0402 -0.05684,0.04961 l -0.08423,-0.03514 c 0.02352,-0.03763 0.08416,-0.05633 0.182933,-0.05633 z m 0.183452,0.141079 0.02119,0.0279 c -0.155224,0.14111 -0.228,0.206812 -0.218591,0.197403 -0.01882,-0.01411 -0.02791,-0.03735 -0.02791,-0.07028 0,-0.02352 0.01364,-0.04475 0.04186,-0.06356 0.03293,-0.01881 0.06831,-0.0355 0.105937,-0.04961 0.04233,-0.01881 0.06811,-0.03245 0.07752,-0.04186 z m -0.507979,0.02119 c 0.05644,0 0.08475,0.01162 0.08475,0.03514 -0.01882,0.0094 -0.02791,0.02811 -0.02791,0.05633 0,0.01411 0.0091,0.03079 0.02791,0.04961 0.02352,0.01881 0.03566,0.03751 0.03566,0.05633 0,0.08467 -0.02123,0.171596 -0.06356,0.260967 -0.04233,0.08937 -0.101473,0.180845 -0.176731,0.274918 -0.07526,0.09408 -0.126807,0.157766 -0.15503,0.190685 l -0.133842,-0.247012 c 0,-0.0094 -0.0071,-0.02356 -0.02119,-0.04238 -0.0094,-0.02352 -0.01447,-0.04475 -0.01447,-0.06356 0,-0.164629 0.03538,-0.300575 0.105936,-0.40876 0.07056,-0.108185 0.183259,-0.162264 0.338482,-0.162264 z m -0.523999,0.221173 c -3.02e-4,3.23e-4 0.0028,0.0041 0.0021,0.0041 l -0.0031,5.16e-4 c 2.46e-4,-0.0016 7.75e-4,-0.0031 10e-4,-0.0047 z m 1.342554,0.0041 c 0,0.206962 -0.0187,0.360108 -0.05633,0.458885 -0.03292,0.09407 -0.108235,0.159769 -0.225827,0.197406 -0.11289,0.0329 -0.188195,0.0567 -0.225824,0.0708 -0.01411,0.005 -0.04696,0.01634 -0.0987,0.03514 -0.04704,0.0188 -0.09404,0.03551 -0.141076,0.04961 -0.0094,0 -0.02103,-0.005 -0.03514,-0.01447 -0.0094,-0.009 -0.02155,-0.01395 -0.03566,-0.01395 -0.02352,0 -0.0493,0.005 -0.07752,0.01395 -0.02352,0.005 -0.04221,0.01 -0.05633,0.01447 0.01411,-0.0141 0.143497,-0.0945 0.388091,-0.240297 0.357481,-0.206963 0.5364,-0.317133 0.5364,-0.331245 0,-0.01411 -0.01215,-0.02827 -0.03565,-0.04237 -0.02352,-0.01411 -0.04222,-0.02119 -0.05633,-0.02119 -0.03293,0 -0.07993,0.0091 -0.141079,0.02791 -0.05644,0.01881 -0.100915,0.02842 -0.133842,0.02842 v -0.03514 c 0.04704,-0.02352 0.09605,-0.05182 0.147796,-0.08475 0.103481,-0.07526 0.185865,-0.11317 0.247013,-0.11317 z m -0.310576,0.03566 0.02119,0.02119 -0.296106,0.176218 h -0.03514 c 0,-0.03292 0.01617,-0.05871 0.04909,-0.07752 0.03763,-0.02352 0.08716,-0.04475 0.148312,-0.06356 0.06115,-0.02352 0.09854,-0.04222 0.112655,-0.05633 z m -0.112655,0.247015 c 0.0094,0.01881 0.02811,0.02791 0.05633,0.02791 0.02822,0 0.054,-0.0091 0.07751,-0.02791 v 0.05633 l -0.296106,0.168982 c -0.05174,0.02822 -0.124518,0.07321 -0.218591,0.134358 -0.09408,0.06114 -0.143608,0.09854 -0.148312,0.112654 -0.0094,0 -0.01901,-0.0051 -0.02842,-0.01395 -0.0047,-0.0141 -0.0067,-0.02372 -0.0067,-0.02842 0,-0.0282 0.04902,-0.08432 0.147794,-0.168981 0.09878,-0.08937 0.164997,-0.138904 0.197922,-0.148313 0.117591,-0.02822 0.18076,-0.04692 0.190169,-0.05633 z m -0.747757,0.52193 c -0.0035,6.04e-4 -0.0083,0.0028 -0.01189,0.0036 -4.08e-4,-8.44e-4 -6.3e-4,-0.0017 -0.001,-0.0026 0.0046,-9e-5 0.0082,-0.001 0.01292,-0.001 z m 1.636593,0.564306 0.169498,0.0563 c -0.02352,0.005 -0.06799,0.0381 -0.133842,0.0992 -0.06115,0.0564 -0.09198,0.0964 -0.09198,0.11989 -0.01881,-0.0564 -0.0279,-0.10852 -0.0279,-0.15555 0,-0.0329 0.01363,-0.0542 0.04186,-0.0636 0.02822,-0.009 0.04238,-0.0281 0.04238,-0.0563 z m -1.051099,0.0284 0.07752,0.0847 c -0.01882,0.0141 -0.08705,0.0353 -0.20464,0.0636 -0.0012,4.2e-4 -0.01072,0.003 -0.0124,0.004 -0.01546,-0.0209 -0.03063,-0.0416 -0.04548,-0.062 0.05754,-0.0229 0.117313,-0.0501 0.185002,-0.0899 z m 1.354439,0.13436 0.0072,0.0207 -0.112655,0.092 -0.254246,0.22583 c 0,0.005 -0.0045,0.0118 -0.01395,0.0212 -0.0047,0.005 -0.0092,0.007 -0.01395,0.007 -0.0047,-0.009 -0.0072,-0.0236 -0.0072,-0.0424 0,-0.0706 0.047,-0.1408 0.141079,-0.21136 0.09878,-0.0753 0.183173,-0.11317 0.25373,-0.11317 z m 0.176734,0.0279 c 0,0.0706 -0.0096,0.12717 -0.02842,0.1695 0,-0.005 -0.0045,-0.01 -0.01395,-0.0145 -0.0094,-0.009 -0.01648,-0.014 -0.02119,-0.014 -0.02822,0 -0.07321,0.0187 -0.134358,0.0563 -0.06115,0.0376 -0.103087,0.0563 -0.126606,0.0563 0,-0.009 0.06115,-0.0726 0.183452,-0.19017 0.02352,0 0.04676,-0.01 0.07028,-0.0284 0.02822,-0.0235 0.05198,-0.0351 0.0708,-0.0351 z m -1.354955,0.0279 c 0.05174,0 0.09874,0.0192 0.141075,0.0568 0.04704,0.0329 0.0708,0.0703 0.0708,0.11265 l -0.03514,-0.0279 -0.113171,0.0563 c 0.0047,0.0235 0.02846,0.0351 0.0708,0.0351 0.02352,0 0.03767,-0.003 0.04237,-0.007 -0.07641,0.0584 -0.16273,0.11676 -0.256315,0.17519 l -0.04599,-0.11369 c 0.0085,-4.6e-4 0.01863,-0.005 0.02687,-0.005 v -0.0568 c -0.01081,0.003 -0.03174,0.009 -0.04599,0.0134 l -0.03927,-0.0982 c -0.01382,-0.0183 -0.025,-0.0344 -0.03876,-0.0527 0.02388,-0.0144 0.05575,-0.0364 0.07493,-0.046 0.05174,-0.0282 0.100756,-0.0424 0.147797,-0.0424 z m 1.43247,0.0357 0.0072,0.1478 c 0,0.0611 -0.01215,0.1036 -0.03566,0.12712 v -0.0279 c 0,-0.0329 0.0025,-0.0754 0.0072,-0.12712 0.0094,-0.0517 0.01648,-0.0917 0.02119,-0.11989 z m -2.431894,0.0796 c 0.13929,0.23071 0.498268,0.51868 0.834575,0.76636 0.04872,0.0462 0.10373,0.0954 0.179316,0.15503 0.02352,0.0188 0.05637,0.0405 0.0987,0.0641 0.04704,0.0235 0.07989,0.0473 0.0987,0.0708 -0.08937,0.0706 -0.190453,0.11756 -0.303343,0.14108 -0.0021,3.6e-4 -0.0036,0.002 -0.0057,0.002 l 0.001,-0.004 c -0.233153,0.0551 -0.488405,0.10312 -0.716235,0.11886 -0.0016,-0.001 -0.0042,-0.004 -0.0057,-0.005 -6.19e-4,0 -0.0079,0.005 -0.0088,0.006 -0.02834,0.002 -0.05798,0.005 -0.08527,0.006 -0.200792,0.005 -0.358634,-0.0439 -0.473874,-0.13178 -0.115242,-0.0914 -0.173114,-0.21812 -0.173114,-0.37982 0,-0.27956 0.1847,-0.54847 0.552421,-0.80719 z m 1.288812,0.0264 c 0.01411,0 0.04241,0.0258 0.08475,0.0775 0.04233,0.0517 0.07064,0.0891 0.08475,0.11265 0,0.009 -0.07985,0.0423 -0.239779,0.0987 -0.127553,0.0425 -0.207507,0.0627 -0.258897,0.0703 l -0.01034,-0.0258 c 0.01687,-0.0224 0.03145,-0.0431 0.06459,-0.0796 0.04704,-0.0517 0.07483,-0.08 0.08423,-0.0847 0.01881,-0.009 0.04712,-0.0165 0.08475,-0.0212 0.03763,-0.005 0.06392,-0.0138 0.07803,-0.0279 0.01881,-0.0188 0.02791,-0.0587 0.02791,-0.11989 z m 1.009239,0.13384 c 0,0.0423 -0.0071,0.0707 -0.02119,0.0847 -0.01411,0.0141 -0.03787,0.0257 -0.0708,0.0351 -0.03292,0.009 -0.0587,0.019 -0.07752,0.0284 l -0.0072,-0.0212 c 0,-0.0235 0.02123,-0.0498 0.06356,-0.078 0.04703,-0.0329 0.08495,-0.0491 0.113172,-0.0491 z m -0.197921,0.007 v 0.0274 l -0.282152,0.19792 -0.0279,-0.0563 z m -0.578258,0.16847 v 5.1e-4 c 0.03293,0 0.04909,0.0238 0.04909,0.0708 0,0.0235 -0.05155,0.0564 -0.15503,0.0987 -0.09878,0.0376 -0.178631,0.0558 -0.239778,0.0558 0.03292,-0.047 0.087,-0.0966 0.162266,-0.1483 0.07526,-0.0517 0.136414,-0.0775 0.183451,-0.0775 z m 0.72657,0 v 5.1e-4 c -0.0047,0.0141 -0.01885,0.0283 -0.04238,0.0424 -0.02352,0.0141 -0.0402,0.0252 -0.04961,0.0346 l -0.0067,-0.0212 c 0,-0.0235 0.0091,-0.0372 0.02791,-0.0419 0.01881,-0.009 0.04257,-0.0145 0.0708,-0.0145 z m -0.987536,0.0563 c -0.02822,0.0188 -0.0636,0.0472 -0.105937,0.0847 -0.04029,0.0358 -0.08062,0.0668 -0.120925,0.094 l -0.04496,-0.11214 c 0.02167,-0.007 0.02633,-0.01 0.05271,-0.017 0.103481,-0.0282 0.176776,-0.0449 0.219109,-0.0496 z m 0.838708,0.0217 c -0.01906,0.0468 -0.07733,0.0917 -0.175699,0.13384 -0.05174,0.0282 -0.09167,0.052 -0.119891,0.0708 -0.02352,0.0188 -0.03767,0.0446 -0.04238,0.0775 0,-0.0188 -0.01869,-0.0284 -0.05633,-0.0284 -0.02352,0.0141 -0.0589,0.0308 -0.105936,0.0496 -0.04703,0.0141 -0.08495,0.0232 -0.11317,0.0279 h -0.02791 c 0.02822,-0.0329 0.07068,-0.0658 0.127124,-0.0987 0.04704,-0.0282 0.0819,-0.0535 0.105421,-0.077 0.02822,-0.0235 0.0449,-0.0564 0.04961,-0.0987 l 0.04961,0.007 c 0.03292,0 0.08194,-0.009 0.147793,-0.0279 0.05626,-0.0234 0.110159,-0.0356 0.161748,-0.0356 z m 0.113689,0.0563 c 0,0.21167 -0.06622,0.35722 -0.197922,0.43718 -0.131704,0.0753 -0.317182,0.12479 -0.557072,0.14831 0.108185,-0.1317 0.183494,-0.1974 0.225827,-0.1974 0.08937,-0.0235 0.192466,-0.0943 0.310057,-0.21188 0.103482,-0.0941 0.176774,-0.1527 0.21911,-0.17621 z m -0.670245,0.0351 c 0.0094,0 0.01648,0.005 0.02119,0.014 0.0047,0.005 0.0067,0.01 0.0067,0.0145 0,0.0188 -0.05862,0.0749 -0.176215,0.16898 -0.11289,0.0894 -0.18112,0.13436 -0.204639,0.13436 -0.01,0 -0.0358,-0.0134 -0.05994,-0.0253 l -0.04289,-0.10697 0.342614,-0.14314 z m 0.161747,0.21911 c 0.0041,0.0237 -0.0403,0.0729 -0.133842,0.14779 -0.08937,0.0705 -0.150524,0.10594 -0.183451,0.10594 -0.02352,0 -0.04221,-0.003 -0.05633,-0.007 -0.0094,-0.005 -0.01395,-0.0189 -0.01395,-0.0424 0.01411,-0.005 0.07021,-0.035 0.168982,-0.0915 0.02822,-0.0141 0.05906,-0.0308 0.09198,-0.0496 0.03751,-0.0234 0.07976,-0.0447 0.126605,-0.0636 z m 0.226343,0.27492 c 0,0.0235 -0.0096,0.0538 -0.02842,0.0915 l -0.05633,-0.0351 -0.360185,0.16949 c -0.0094,0 -0.02103,0.0116 -0.03514,0.0351 -0.01411,0.0188 -0.02828,0.0279 -0.04238,0.0279 v -0.0351 l -0.580843,0.3049 0.02067,-0.0987 c 0.0039,-0.003 0.0057,-0.006 0.0098,-0.009 0.08467,-0.0658 0.174128,-0.12448 0.2682,-0.17622 0.09878,-0.0564 0.15539,-0.0842 0.1695,-0.0842 l 0.07751,0.007 c 0.04704,0 0.07534,-0.0187 0.08475,-0.0563 0.07996,-0.0282 0.126966,-0.0449 0.141076,-0.0496 0.02352,-0.009 0.07052,-0.0236 0.141078,-0.0424 0.07055,-0.0235 0.134242,-0.0397 0.190685,-0.0491 z m 0.141076,0.0563 c 0.0094,0.0141 0.0185,0.0328 0.02791,0.0563 0.01411,0.0188 0.02372,0.0375 0.02842,0.0563 0,0.0235 -0.01668,0.0402 -0.04961,0.0496 -0.03292,0.009 -0.0774,0.0165 -0.133842,0.0212 -0.05644,0.005 -0.08929,0.009 -0.0987,0.0139 0,-0.0282 0.02576,-0.0682 0.07751,-0.11989 0.05644,-0.0517 0.105976,-0.0775 0.148309,-0.0775 z m 0.105421,0.16949 c 0.02822,0.005 0.04238,0.0234 0.04238,0.0563 H 77.1697 Z m -0.606682,0.0279 0.02119,0.0284 -0.162264,0.16227 c -0.07056,0.0753 -0.138787,0.14095 -0.204639,0.1974 -0.01411,0 -0.04949,0.0328 -0.105936,0.0987 -0.05644,0.0611 -0.09131,0.094 -0.105421,0.0987 l -0.105937,0.0568 c -0.02822,-0.005 -0.08684,-0.01 -0.176215,-0.0145 -0.08467,-0.005 -0.139263,-0.0189 -0.162782,-0.0424 0.03293,0 0.136538,-0.0632 0.310576,-0.19017 0.05174,-0.047 0.10582,-0.087 0.162264,-0.11989 l 0.02119,-0.0496 0.03514,0.0212 c 0.01411,0.005 0.08234,-0.0256 0.204639,-0.0915 0.122296,-0.0706 0.211757,-0.12262 0.2682,-0.15554 z m 0.31781,0.0563 c -0.0094,0.0188 -0.04226,0.0401 -0.0987,0.0636 -0.05174,0.0188 -0.08965,0.0355 -0.113173,0.0496 -0.02352,0.0141 -0.03514,0.0328 -0.03514,0.0563 0,0.0376 0.03285,0.0563 0.0987,0.0563 0.02822,0 0.06107,-0.0116 0.0987,-0.0351 0.03763,-0.0235 0.05886,-0.0493 0.06356,-0.0775 0.0047,0.005 0.0072,0.0163 0.0072,0.0351 0,0.0235 -0.03337,0.0614 -0.09922,0.11318 -0.06115,0.0517 -0.103087,0.0775 -0.126606,0.0775 -0.03293,0 -0.06376,-0.0212 -0.09198,-0.0636 l -0.359669,0.1974 v -0.0279 c 0.02352,-0.0282 0.06799,-0.0752 0.133842,-0.14108 0.07056,-0.0706 0.138787,-0.13424 0.204639,-0.19068 0.03293,-0.0282 0.08499,-0.054 0.155546,-0.0775 0.07056,-0.0235 0.124635,-0.0357 0.162264,-0.0357 z m 0.331248,0.0496 c 0.02822,0 0.04945,0.005 0.06356,0.014 0.01411,0.005 0.02826,0.0214 0.04238,0.0496 l -0.127124,0.0847 c -0.08467,0.0659 -0.161989,0.11286 -0.232545,0.14108 l -0.04961,0.0491 -0.01395,-0.11266 0.169497,-0.16226 c 0.01411,0.009 0.03028,0.0139 0.04909,0.0139 0.01411,0 0.02827,-0.0116 0.04237,-0.0351 0.01411,-0.0282 0.03281,-0.0424 0.05633,-0.0424 z m 0.211873,0.13384 v 0.0357 l 0.169497,0.16899 c -0.01411,0.005 -0.03534,0.0168 -0.06356,0.0357 -0.02822,0.0141 -0.054,0.0212 -0.07752,0.0212 -0.01881,0 -0.02842,-0.005 -0.02842,-0.0145 l 0.0072,-0.0424 c 0,-0.0235 -0.01921,-0.0397 -0.05684,-0.0491 -0.03293,-0.009 -0.101158,-0.0145 -0.204639,-0.0145 0,-0.0188 0.03538,-0.0466 0.105936,-0.0842 0.07526,-0.0376 0.124794,-0.0568 0.148313,-0.0568 z m -0.324528,0.14832 c 0,0.0141 -0.01162,0.0353 -0.03514,0.0636 -0.01881,0.0235 -0.02842,0.0402 -0.02842,0.0496 l -0.06356,-0.0284 z m 0.07751,0.0847 c 0.01882,0 0.04712,0.005 0.08475,0.0139 0.03763,0.005 0.05633,0.01 0.05633,0.0145 0,0.005 -0.03032,0.0138 -0.09147,0.0279 -0.06115,0.0141 -0.106135,0.0237 -0.134358,0.0284 -0.01411,0 -0.02119,-0.01 -0.02119,-0.0284 0,-0.005 0.01414,-0.0138 0.04238,-0.0279 0.02822,-0.0141 0.04945,-0.0237 0.06356,-0.0284 z"
       id="text4525"
       inkscape:connector-curvature="0" />
  </g>
</svg>
